<?xml version="1.0" standalone="no"?>
<!DOCTYPE svg PUBLIC "-//W3C//DTD SVG 20010904//EN"
 "http://www.w3.org/TR/2001/REC-SVG-20010904/DTD/svg10.dtd">
<svg version="1.0" xmlns="http://www.w3.org/2000/svg"
 width="1000.000000pt" height="1000.000000pt" viewBox="0 0 1000.000000 1000.000000"
 preserveAspectRatio="xMidYMid meet">
<metadata>
Created by potrace 1.11, written by Peter Selinger 2001-2013
</metadata>
<g transform="translate(0.000000,1000.000000) scale(0.100000,-0.100000)"
fill="#000000" stroke="none">
<path d="M1970 8069 c-279 -46 -482 -137 -536 -240 -19 -38 -18 -113 3 -156 9
-20 33 -47 54 -62 36 -25 38 -29 44 -96 10 -113 11 -652 1 -1035 -8 -314 -7
-362 7 -411 35 -119 97 -169 210 -169 106 0 156 32 199 125 19 42 23 72 26
190 2 77 -1 219 -6 315 -6 96 -9 175 -9 175 1 0 68 -2 149 -5 l146 -5 106
-210 c205 -410 337 -565 502 -591 93 -14 218 56 266 149 25 50 36 150 19 171
-7 8 -36 23 -64 32 -70 23 -98 44 -151 115 -81 107 -287 463 -275 473 2 1 24
16 49 33 62 42 178 167 219 236 66 111 84 179 85 307 1 134 -19 215 -81 319
-140 235 -398 353 -767 350 -78 -1 -166 -5 -196 -10z m306 -380 c112 -15 180
-44 234 -99 58 -57 84 -127 78 -208 -5 -71 -28 -118 -86 -183 -68 -76 -91 -84
-176 -68 -79 15 -245 18 -319 6 l-47 -8 6 268 c4 147 8 269 8 270 4 5 162 31
193 32 17 1 66 -4 109 -10z"/>
<path d="M7672 8060 c-228 -61 -413 -236 -453 -428 -15 -74 -6 -193 20 -261
64 -170 189 -279 560 -495 219 -127 286 -176 330 -242 26 -40 31 -57 31 -108
-1 -79 -24 -130 -84 -183 -67 -59 -126 -76 -240 -71 -107 5 -152 23 -295 116
-100 66 -141 82 -209 82 -110 0 -205 -107 -188 -212 17 -106 103 -191 285
-283 123 -61 241 -87 406 -89 173 -1 262 17 395 82 78 38 109 60 175 127 92
92 136 167 165 281 37 145 22 275 -47 407 -75 142 -212 257 -516 436 -302 177
-353 220 -365 303 -9 74 43 133 144 164 98 29 155 18 328 -63 103 -49 127 -57
180 -57 136 -1 221 105 186 234 -26 96 -178 204 -356 251 -117 32 -352 36
-452 9z"/>
<path d="M4178 8061 c-55 -18 -98 -53 -131 -109 -38 -62 -42 -74 -242 -641
-74 -211 -136 -386 -139 -388 -2 -2 -32 -8 -66 -14 -93 -15 -148 -46 -177
-102 -19 -38 -19 -137 1 -175 16 -31 65 -74 100 -86 12 -4 16 -12 11 -24 -3
-9 -34 -97 -67 -195 -46 -137 -60 -192 -60 -237 0 -71 23 -122 70 -158 29 -22
47 -27 106 -30 59 -2 78 1 111 20 62 36 88 92 168 361 41 136 78 251 81 254
11 12 229 16 410 8 l175 -7 87 -260 c92 -276 116 -323 184 -359 39 -21 132
-25 177 -8 66 25 116 97 115 168 0 43 -48 199 -116 375 -14 37 -26 72 -26 76
0 4 14 13 30 20 76 31 113 86 113 165 0 62 -20 102 -73 148 -42 36 -103 57
-163 57 l-34 0 -88 253 c-48 138 -127 366 -175 505 -48 138 -99 270 -113 292
-38 56 -104 92 -180 96 -34 2 -74 0 -89 -5z m103 -673 c40 -130 139 -479 139
-490 0 -4 -81 -8 -180 -8 -132 0 -180 3 -180 12 0 17 147 511 164 553 8 19 17
35 20 35 3 0 19 -46 37 -102z"/>
<path d="M5446 8060 c-65 -21 -125 -109 -126 -185 0 -93 44 -186 285 -595 92
-157 197 -339 232 -405 l64 -120 -11 -282 c-14 -356 -2 -442 68 -517 38 -40
81 -56 152 -56 101 0 158 38 200 134 30 66 35 186 21 480 l-11 238 56 107 c32
58 133 232 225 387 290 486 315 538 307 644 -3 48 -10 67 -34 97 -54 66 -77
78 -157 78 -130 0 -161 -35 -334 -379 -126 -252 -252 -486 -262 -486 -8 0
-140 246 -265 496 -158 315 -199 363 -318 370 -35 2 -76 -1 -92 -6z"/>
<path d="M925 5716 c-46 -20 -96 -66 -111 -103 -16 -38 -17 -118 -3 -223 5
-41 7 -91 4 -111 -6 -35 -8 -37 -53 -42 -67 -7 -102 -48 -102 -118 0 -45 4
-55 34 -85 23 -23 47 -35 76 -40 l42 -7 -7 -168 c-7 -169 -7 -169 18 -212 61
-103 240 -139 282 -57 30 59 11 107 -53 138 l-37 17 4 143 c3 126 1 150 -19
211 -21 67 -21 69 -3 102 15 29 18 58 18 203 l0 169 43 18 c66 28 82 94 36
148 -23 28 -31 31 -82 31 -32 -1 -70 -7 -87 -14z"/>
<path d="M8916 5699 c-46 -55 -28 -120 42 -150 l43 -19 -7 -142 c-6 -130 -4
-149 15 -205 l21 -63 -20 -60 c-21 -63 -25 -161 -11 -273 7 -60 -5 -97 -33
-97 -24 0 -64 -40 -71 -71 -16 -71 46 -126 129 -114 67 10 142 58 167 107 20
39 20 50 14 209 -8 169 -8 169 14 169 28 0 83 23 104 44 24 25 37 80 26 119
-13 48 -50 78 -102 84 -41 5 -45 8 -50 37 -3 17 0 85 6 151 12 144 6 184 -36
232 -42 48 -99 73 -169 73 -51 0 -59 -3 -82 -31z"/>
<path d="M2390 5634 c-194 -36 -283 -93 -264 -170 3 -13 18 -33 32 -44 l25
-20 -1 -353 c-1 -243 2 -361 9 -380 22 -54 105 -74 152 -37 42 33 51 78 44
227 l-6 133 70 0 70 0 26 -57 c72 -158 156 -278 215 -309 80 -42 178 14 178
101 0 30 -5 37 -37 52 -44 21 -94 84 -151 192 l-42 79 44 35 c88 72 134 180
122 281 -14 107 -106 213 -220 251 -50 16 -216 28 -266 19z m207 -198 c91 -47
106 -143 33 -216 -37 -37 -39 -38 -82 -28 -23 5 -71 8 -105 5 l-63 -5 0 83 c0
45 3 103 6 128 6 40 10 47 33 51 45 8 149 -3 178 -18z"/>
<path d="M3440 5626 c-157 -42 -285 -176 -335 -348 -10 -37 -16 -93 -16 -155
0 -165 39 -267 145 -380 247 -265 664 -138 761 233 20 76 19 220 -1 298 -32
125 -122 248 -226 309 -91 53 -227 71 -328 43z m224 -200 c94 -55 152 -191
143 -332 -20 -326 -342 -425 -479 -147 -75 154 -35 380 84 465 77 54 174 60
252 14z"/>
<path d="M8225 5631 c-113 -19 -192 -54 -228 -103 -24 -32 -17 -69 18 -100
l25 -22 0 -286 0 -286 -30 -22 c-36 -27 -41 -76 -10 -114 68 -88 345 -124 513
-67 202 68 327 254 327 489 0 236 -131 426 -335 489 -74 23 -208 33 -280 22z
m234 -201 c59 -26 123 -91 154 -158 32 -70 32 -236 -1 -307 -57 -124 -189
-198 -324 -179 l-48 6 0 328 c0 304 1 329 18 334 36 11 152 -3 201 -24z"/>
<path d="M1381 5618 c-17 -5 -38 -20 -47 -34 -15 -22 -16 -35 -5 -107 16 -119
15 -237 -3 -237 -23 0 -66 -59 -66 -89 0 -33 31 -77 62 -87 20 -6 21 -9 14
-169 -8 -183 -1 -232 41 -264 28 -23 82 -28 114 -11 10 6 27 25 36 43 15 28
17 57 15 215 -2 144 0 182 10 183 7 0 72 0 143 0 143 -2 171 6 194 53 18 37 5
82 -32 110 -27 19 -39 21 -173 18 l-144 -4 0 101 0 101 184 0 c184 0 185 0
215 26 48 40 41 117 -12 146 -26 14 -495 19 -546 6z"/>
<path d="M4297 5619 c-43 -25 -44 -42 -43 -499 2 -458 2 -462 48 -494 45 -32
123 -11 146 39 8 18 12 106 12 288 l0 261 169 -284 c114 -192 179 -291 198
-302 56 -36 133 -13 152 44 14 45 17 864 3 899 -35 88 -166 75 -191 -18 -6
-22 -8 -131 -4 -284 3 -137 4 -249 1 -249 -3 0 -81 131 -174 291 -122 210
-177 295 -196 305 -31 16 -95 18 -121 3z"/>
<path d="M5245 5610 c-43 -21 -60 -61 -45 -105 17 -52 51 -65 163 -65 l94 0 7
-131 c3 -73 3 -238 0 -368 -6 -211 -5 -240 10 -272 31 -65 104 -78 158 -30
l33 30 -3 283 c-2 156 0 329 3 386 l7 102 89 0 c132 0 166 23 157 110 -2 22
-12 40 -30 53 -27 20 -42 21 -320 22 -242 0 -298 -2 -323 -15z"/>
<path d="M6171 5618 c-17 -5 -38 -20 -47 -34 -15 -22 -16 -35 -5 -107 16 -119
15 -237 -3 -237 -23 0 -66 -59 -66 -89 0 -33 31 -77 61 -86 20 -7 20 -13 18
-188 -5 -271 -21 -259 320 -258 169 0 257 3 271 11 12 6 28 27 36 46 12 29 12
39 0 68 -23 55 -39 58 -242 57 l-184 -2 0 131 c0 117 2 130 18 131 9 0 79 0
155 -1 l137 -1 30 30 c34 34 39 74 14 110 -30 42 -66 49 -216 43 l-138 -5 0
102 0 101 184 0 c184 0 185 0 215 26 48 40 41 117 -12 146 -26 14 -495 19
-546 6z"/>
<path d="M7037 5619 c-43 -25 -44 -42 -43 -499 2 -458 2 -462 48 -494 45 -32
123 -11 146 39 8 18 12 106 12 288 l0 261 169 -284 c114 -192 179 -291 198
-302 56 -36 133 -13 152 44 14 45 17 864 3 899 -35 88 -166 75 -191 -18 -6
-22 -8 -131 -4 -284 3 -137 4 -249 1 -249 -3 0 -81 131 -174 291 -122 210
-177 295 -196 305 -31 16 -95 18 -121 3z"/>
<path d="M1145 4121 c-363 -65 -544 -172 -545 -324 0 -51 32 -110 73 -136 26
-16 36 -30 41 -59 8 -49 8 -1096 0 -1156 -4 -27 -12 -46 -20 -46 -21 0 -76
-52 -90 -87 -62 -146 78 -272 372 -332 153 -32 418 -47 572 -33 407 37 706
248 762 539 18 89 8 234 -19 305 -43 112 -137 228 -252 313 l-56 41 52 57
c203 223 193 510 -25 727 -104 104 -230 164 -409 195 -114 20 -330 18 -456 -4z
m450 -386 c102 -34 175 -110 175 -182 0 -88 -65 -177 -167 -229 -50 -25 -66
-28 -118 -24 -33 2 -124 5 -203 5 l-142 0 0 212 0 212 53 10 c126 25 322 23
402 -4z m27 -839 c175 -62 267 -154 268 -266 0 -128 -72 -211 -236 -272 -54
-20 -77 -22 -276 -23 -119 0 -220 4 -224 8 -4 4 -10 126 -12 271 l-4 263 138
6 c77 3 164 12 194 20 75 20 76 20 152 -7z"/>
<path d="M8502 4120 c-228 -61 -413 -236 -453 -428 -15 -74 -6 -193 20 -261
64 -170 189 -279 560 -495 219 -127 286 -176 330 -242 26 -40 31 -57 31 -108
-1 -79 -24 -130 -84 -183 -67 -59 -126 -76 -240 -71 -107 5 -152 23 -295 116
-100 66 -141 82 -209 82 -110 0 -205 -107 -188 -212 17 -106 103 -191 285
-283 123 -61 241 -87 406 -89 173 -1 262 17 395 82 78 38 109 60 175 127 92
92 136 167 165 281 37 145 22 275 -47 407 -75 142 -212 257 -516 436 -302 177
-353 220 -365 303 -9 74 43 133 144 164 98 29 155 18 328 -63 103 -49 127 -57
180 -57 136 -1 221 105 186 234 -26 96 -178 204 -356 251 -117 32 -352 36
-452 9z"/>
<path d="M2696 4120 c-65 -21 -125 -109 -126 -185 0 -93 44 -185 285 -595 92
-156 196 -339 232 -405 l65 -120 -11 -281 c-15 -357 -3 -443 67 -518 38 -40
81 -56 152 -56 101 0 158 38 200 134 30 66 35 186 21 480 l-11 238 56 107 c32
58 133 232 225 387 290 486 315 538 307 644 -3 48 -10 67 -34 97 -54 66 -77
78 -157 78 -130 0 -161 -35 -334 -379 -126 -252 -252 -486 -262 -486 -8 0
-140 246 -265 496 -158 315 -199 363 -318 370 -35 2 -76 -1 -92 -6z"/>
<path d="M4498 4105 c-159 -51 -198 -250 -67 -345 61 -44 119 -52 309 -41 105
6 167 6 171 -1 19 -30 23 -702 8 -1165 -11 -346 -7 -408 31 -483 22 -43 66
-85 103 -99 40 -15 142 -14 180 3 66 28 110 99 128 205 5 33 5 168 -1 341 -11
322 -13 1015 -4 1133 l7 78 51 -6 c28 -3 112 -7 186 -8 148 -2 187 8 243 61
43 40 57 75 57 138 0 79 -31 130 -102 169 -61 34 -32 33 -578 25 -173 -2 -396
-1 -495 3 -147 5 -189 4 -227 -8z"/>
<path d="M6453 4110 c-140 -28 -195 -119 -158 -261 16 -63 21 -121 29 -406 l4
-141 -26 -7 c-117 -28 -177 -172 -119 -285 17 -35 34 -51 75 -72 29 -15 57
-28 63 -30 6 -2 6 -121 0 -354 -6 -232 -6 -367 1 -398 13 -60 62 -124 118
-156 l45 -25 505 -1 c319 -1 519 2 542 9 46 12 103 59 125 100 21 41 21 133 1
172 -24 45 -68 82 -118 100 -39 14 -92 15 -416 9 l-371 -7 -6 78 c-4 43 -7
170 -7 282 l0 204 328 -3 c291 -3 330 -1 358 14 164 90 139 311 -42 364 -51
14 -82 15 -293 5 -130 -6 -262 -11 -293 -11 l-58 0 0 214 0 214 68 8 c37 4
198 2 357 -4 347 -13 389 -8 457 65 71 75 61 206 -21 276 -64 53 -113 59 -383
48 -155 -6 -312 -7 -433 -1 -222 11 -275 11 -332 0z"/>
</g>
</svg>
